# xmcd
#
# Track frame offsets: 
#        150
#        66425
#        153235
#        204815
#        258940
#        282270
#
# Disc length: 4183 seconds
#
# Revision: 0
# Processed by: cddbd v1.5.2PL0 Copyright (c) Steve Scherf et al.
# Submitted via: ExactAudioCopy v1.0b1
#
DISCID=4d105506
DTITLE=Michail Jurowski, Norrköping Symphony - Peterson-Berger: Sympho
DTITLE=ny no. 2
DYEAR=1998
DGENRE=Classical
TTITLE0=Symphony, no. 02   Becalmed (Andante molto tranquillo) - Voyag
TTITLE0=e (Allegro non troppo)
TTITLE1=Symphony, no. 02   The City of Roses. The Procession of Dionys
TTITLE1=us (Vivace strepitando - In the Temple of Eros (Molto adagio -
TTITLE1=Sy
TTITLE2=Symphony, no. 02   Homesickness (Andante, molto tranquillo - F
TTITLE2=or Southerly Winds (Allegro grazioso)
TTITLE3=Romance, violin and orchestra, d minor
TTITLE4=Oriental Dance, orchestra
TTITLE5=Sveagaldrar, cantata   Prelude
EXTD=
EXTT0=
EXTT1=
EXTT2=
EXTT3=
EXTT4=
EXTT5=
PLAYORDER=
